<svg width="256" height="256" viewBox="0 0 256 256" fill="none" xmlns="http://www.w3.org/2000/svg">
<path fill-rule="evenodd" clip-rule="evenodd" d="M52.5759 52.5759C94.2293 10.9226 161.771 10.9226 203.424 52.5759C245.077 94.2293 245.077 161.771 203.424 203.424C201.424 205.424 198.711 206.547 195.883 206.547C193.054 206.547 190.342 205.424 188.341 203.424L52.5759 67.6586C50.5762 65.6583 49.4529 62.9457 49.4529 60.1173C49.4529 57.2889 50.5762 54.5762 52.5759 52.5759ZM33.8026 79.0613C34.7932 78.0695 35.9696 77.2828 37.2646 76.746C38.5595 76.2092 39.9475 75.9329 41.3493 75.9329C42.751 75.9329 44.139 76.2092 45.434 76.746C46.7289 77.2828 47.9053 78.0695 48.8959 79.0613L176.939 207.104C177.929 208.095 178.714 209.271 179.25 210.566C179.786 211.861 180.061 213.248 180.061 214.649C180.06 216.05 179.784 217.437 179.247 218.732C178.711 220.026 177.924 221.202 176.933 222.192C175.942 223.182 174.766 223.968 173.471 224.503C172.177 225.039 170.789 225.315 169.388 225.314C167.987 225.314 166.6 225.037 165.306 224.501C164.011 223.964 162.836 223.178 161.845 222.187L33.8133 94.1546C32.8215 93.164 32.0347 91.9876 31.4979 90.6926C30.9612 89.3977 30.6849 88.0097 30.6849 86.6079C30.6849 85.2062 30.9612 83.8182 31.4979 82.5232C32.0347 81.2283 32.8215 80.0519 33.8133 79.0613H33.8026ZM24.6079 115.115C26.6082 113.115 29.3208 111.992 32.1493 111.992C34.9777 111.992 37.6903 113.115 39.6906 115.115L140.885 216.309C142.828 218.321 143.903 221.015 143.879 223.812C143.855 226.609 142.733 229.284 140.755 231.262C138.778 233.24 136.102 234.362 133.306 234.386C130.509 234.41 127.814 233.335 125.803 231.392L24.6079 130.197C22.6082 128.197 21.4849 125.484 21.4849 122.656C21.4849 119.828 22.6082 117.115 24.6079 115.115ZM29.9413 165.717C30.9319 164.726 32.1083 163.939 33.4032 163.402C34.6981 162.865 36.0862 162.589 37.4879 162.589C38.8897 162.589 40.2777 162.865 41.5726 163.402C42.8675 163.939 44.0439 164.726 45.0346 165.717L90.2826 210.965C91.3014 211.949 92.114 213.126 92.673 214.428C93.232 215.729 93.5263 217.129 93.5386 218.545C93.5509 219.961 93.281 221.366 92.7447 222.677C92.2084 223.988 91.4163 225.179 90.4148 226.18C89.4133 227.182 88.2223 227.974 86.9114 228.51C85.6005 229.046 84.196 229.316 82.7796 229.304C81.3633 229.292 79.9636 228.997 78.6623 228.438C77.3609 227.879 76.1839 227.067 75.1999 226.048L29.9519 180.8C27.9522 178.8 26.8289 176.087 26.8289 173.259C26.8289 170.43 27.9522 167.718 29.9519 165.717H29.9413Z" fill="white"/>
</svg>
