<svg width="256" height="256" viewBox="0 0 256 256" fill="none" xmlns="http://www.w3.org/2000/svg">
<path fill-rule="evenodd" clip-rule="evenodd" d="M52.0911 52.24C93.7444 10.5867 161.286 10.5867 202.939 52.24C244.592 93.8933 244.592 161.435 202.939 203.088C200.939 205.088 198.226 206.211 195.398 206.211C192.569 206.211 189.857 205.088 187.856 203.088L52.0911 67.3227C50.0914 65.3224 48.968 62.6098 48.968 59.7813C48.968 56.9529 50.0914 54.2403 52.0911 52.24ZM33.3177 78.7253C34.3084 77.7336 35.4848 76.9468 36.7797 76.41C38.0746 75.8732 39.4626 75.5969 40.8644 75.5969C42.2662 75.5969 43.6542 75.8732 44.9491 76.41C46.244 76.9468 47.4204 77.7336 48.4111 78.7253L176.454 206.768C177.444 207.759 178.23 208.935 178.765 210.23C179.301 211.525 179.576 212.912 179.576 214.313C179.575 215.714 179.299 217.101 178.762 218.396C178.226 219.69 177.439 220.866 176.448 221.856C175.457 222.846 174.281 223.632 172.986 224.167C171.692 224.703 170.304 224.979 168.903 224.978C167.502 224.978 166.115 224.701 164.821 224.165C163.527 223.628 162.351 222.842 161.36 221.851L33.3284 93.8187C32.3366 92.828 31.5499 91.6516 31.0131 90.3567C30.4763 89.0618 30.2 87.6738 30.2 86.272C30.2 84.8702 30.4763 83.4822 31.0131 82.1873C31.5499 80.8924 32.3366 79.716 33.3284 78.7253H33.3177ZM24.1231 114.779C26.1233 112.779 28.836 111.656 31.6644 111.656C34.4928 111.656 37.2054 112.779 39.2057 114.779L140.4 215.973C142.343 217.985 143.419 220.68 143.394 223.476C143.37 226.273 142.248 228.948 140.27 230.926C138.293 232.904 135.617 234.026 132.821 234.05C130.024 234.074 127.329 232.999 125.318 231.056L24.1231 129.861C22.1234 127.861 21 125.148 21 122.32C21 119.492 22.1234 116.779 24.1231 114.779ZM29.4564 165.381C30.447 164.39 31.6234 163.603 32.9184 163.066C34.2133 162.529 35.6013 162.253 37.0031 162.253C38.4048 162.253 39.7928 162.529 41.0878 163.066C42.3827 163.603 43.5591 164.39 44.5497 165.381L89.7977 210.629C90.8165 211.613 91.6291 212.79 92.1881 214.092C92.7472 215.393 93.0414 216.793 93.0537 218.209C93.066 219.625 92.7961 221.03 92.2598 222.341C91.7235 223.652 90.9315 224.843 89.9299 225.844C88.9284 226.846 87.7375 227.638 86.4266 228.174C85.1157 228.71 83.7111 228.98 82.2948 228.968C80.8785 228.956 79.4788 228.661 78.1774 228.102C76.876 227.543 75.699 226.731 74.7151 225.712L29.4671 180.464C27.4674 178.464 26.344 175.751 26.344 172.923C26.344 170.094 27.4674 167.382 29.4671 165.381H29.4564Z" fill="white"/>
</svg>
